<svg width="28" height="23" viewBox="0 0 28 23" fill="none" xmlns="http://www.w3.org/2000/svg">
<path fill-rule="evenodd" clip-rule="evenodd" d="M11.1179 0.75H16.2579C18.5554 0.75 20.3754 0.75 21.7992 0.94125C23.2642 1.13875 24.4504 1.55375 25.3867 2.48875C26.3217 3.425 26.7367 4.61125 26.9342 6.07625C27.0467 6.9175 27.0929 7.89625 27.1117 9.03C27.128 9.12502 27.1297 9.22197 27.1167 9.3175C27.1254 10.025 27.1254 10.79 27.1254 11.6175V11.6875C27.1254 11.9361 27.0267 12.1746 26.8509 12.3504C26.675 12.5262 26.4366 12.625 26.1879 12.625C25.9393 12.625 25.7008 12.5262 25.525 12.3504C25.3492 12.1746 25.2504 11.9361 25.2504 11.6875C25.2504 11.13 25.2504 10.61 25.2479 10.125H2.12794C2.12544 10.61 2.12544 11.13 2.12544 11.6875C2.12544 14.0712 2.12794 15.765 2.30044 17.05C2.46919 18.3063 2.78669 19.0312 3.31544 19.56C3.84419 20.0888 4.56919 20.4062 5.82669 20.575C7.11169 20.7475 8.80419 20.75 11.1879 20.75H16.1879C16.4366 20.75 16.675 20.8488 16.8509 21.0246C17.0267 21.2004 17.1254 21.4389 17.1254 21.6875C17.1254 21.9361 17.0267 22.1746 16.8509 22.3504C16.675 22.5262 16.4366 22.625 16.1879 22.625H11.1179C8.82044 22.625 7.00044 22.625 5.57669 22.4338C4.11169 22.2362 2.92544 21.8212 1.98919 20.8862C1.05419 19.95 0.639189 18.7638 0.441689 17.2987C0.250439 15.8738 0.250439 14.055 0.250439 11.7575V11.6175C0.250439 10.79 0.250439 10.025 0.259189 9.3175C0.245787 9.22204 0.247052 9.12508 0.262939 9.03C0.282939 7.89625 0.329189 6.9175 0.441689 6.07625C0.639189 4.61125 1.05419 3.425 1.98919 2.48875C2.92544 1.55375 4.11169 1.13875 5.57669 0.94125C7.00169 0.75 8.82044 0.75 11.1179 0.75ZM2.15794 8.25H25.2179C25.2022 7.60637 25.1547 6.96392 25.0754 6.325C24.9067 5.06875 24.5892 4.34375 24.0604 3.815C23.5317 3.28625 22.8067 2.96875 21.5492 2.8C20.2654 2.6275 18.5717 2.625 16.1879 2.625H11.1879C8.80419 2.625 7.11169 2.6275 5.82544 2.8C4.56919 2.96875 3.84419 3.28625 3.31544 3.815C2.78669 4.34375 2.46919 5.06875 2.30044 6.32625C2.22544 6.8825 2.18294 7.51625 2.15794 8.25ZM22.4379 13.25C22.6866 13.25 22.925 13.3488 23.1009 13.5246C23.2767 13.7004 23.3754 13.9389 23.3754 14.1875V19.425L24.2754 18.525C24.3613 18.4329 24.4648 18.359 24.5798 18.3078C24.6948 18.2565 24.8189 18.229 24.9448 18.2268C25.0707 18.2245 25.1957 18.2477 25.3124 18.2948C25.4292 18.342 25.5352 18.4122 25.6242 18.5012C25.7133 18.5902 25.7834 18.6963 25.8306 18.813C25.8777 18.9297 25.9009 19.0548 25.8987 19.1807C25.8965 19.3065 25.8689 19.4307 25.8177 19.5457C25.7664 19.6607 25.6925 19.7642 25.6004 19.85L23.1004 22.35C22.9247 22.5256 22.6864 22.6242 22.4379 22.6242C22.1895 22.6242 21.9512 22.5256 21.7754 22.35L19.2754 19.85C19.1833 19.7642 19.1095 19.6607 19.0582 19.5457C19.007 19.4307 18.9794 19.3065 18.9772 19.1807C18.975 19.0548 18.9981 18.9297 19.0453 18.813C19.0924 18.6963 19.1626 18.5902 19.2516 18.5012C19.3407 18.4122 19.4467 18.342 19.5634 18.2948C19.6802 18.2477 19.8052 18.2245 19.9311 18.2268C20.057 18.229 20.1811 18.2565 20.2961 18.3078C20.4111 18.359 20.5146 18.4329 20.6004 18.525L21.5004 19.425V14.1875C21.5004 13.9389 21.5992 13.7004 21.775 13.5246C21.9508 13.3488 22.1893 13.25 22.4379 13.25ZM5.25044 16.6875C5.25044 16.4389 5.34921 16.2004 5.52503 16.0246C5.70084 15.8488 5.9393 15.75 6.18794 15.75H11.1879C11.4366 15.75 11.675 15.8488 11.8509 16.0246C12.0267 16.2004 12.1254 16.4389 12.1254 16.6875C12.1254 16.9361 12.0267 17.1746 11.8509 17.3504C11.675 17.5262 11.4366 17.625 11.1879 17.625H6.18794C5.9393 17.625 5.70084 17.5262 5.52503 17.3504C5.34921 17.1746 5.25044 16.9361 5.25044 16.6875ZM13.3754 16.6875C13.3754 16.4389 13.4742 16.2004 13.65 16.0246C13.8258 15.8488 14.0643 15.75 14.3129 15.75H14.9379C15.1866 15.75 15.425 15.8488 15.6009 16.0246C15.7767 16.2004 15.8754 16.4389 15.8754 16.6875C15.8754 16.9361 15.7767 17.1746 15.6009 17.3504C15.425 17.5262 15.1866 17.625 14.9379 17.625H14.3129C14.0643 17.625 13.8258 17.5262 13.65 17.3504C13.4742 17.1746 13.3754 16.9361 13.3754 16.6875Z" fill="#E0E0E0"/>
</svg>
