<svg width="28" height="22" viewBox="0 0 28 22" fill="none" xmlns="http://www.w3.org/2000/svg">
<path fill-rule="evenodd" clip-rule="evenodd" d="M11.43 0.0625H16.57C18.8675 0.0625 20.6875 0.0625001 22.1112 0.25375C23.5762 0.45125 24.7624 0.86625 25.6987 1.80125C26.6337 2.7375 27.0487 3.92375 27.2462 5.38875C27.3587 6.23 27.405 7.20875 27.4237 8.3425C27.44 8.43752 27.4417 8.53447 27.4287 8.63C27.4375 9.3375 27.4375 10.1025 27.4375 10.93V11C27.4375 11.2486 27.3387 11.4871 27.1629 11.6629C26.987 11.8387 26.7486 11.9375 26.5 11.9375C26.2513 11.9375 26.0129 11.8387 25.837 11.6629C25.6612 11.4871 25.5625 11.2486 25.5625 11C25.5625 10.4425 25.5624 9.9225 25.5599 9.4375H2.43995C2.43745 9.9225 2.43745 10.4425 2.43745 11C2.43745 13.3837 2.43995 15.0775 2.61245 16.3625C2.7812 17.6188 3.0987 18.3438 3.62745 18.8725C4.1562 19.4013 4.8812 19.7188 6.1387 19.8875C7.4237 20.06 9.1162 20.0625 11.5 20.0625H16.5C16.7486 20.0625 16.987 20.1613 17.1629 20.3371C17.3387 20.5129 17.4375 20.7514 17.4375 21C17.4375 21.2486 17.3387 21.4871 17.1629 21.6629C16.987 21.8387 16.7486 21.9375 16.5 21.9375H11.43C9.13245 21.9375 7.31245 21.9375 5.8887 21.7463C4.4237 21.5487 3.23745 21.1337 2.3012 20.1987C1.3662 19.2625 0.951201 18.0763 0.753701 16.6112C0.562451 15.1863 0.562451 13.3675 0.562451 11.07V10.93C0.562451 10.1025 0.562451 9.3375 0.571201 8.63C0.557799 8.53454 0.559063 8.43758 0.574951 8.3425C0.594951 7.20875 0.641201 6.23 0.753701 5.38875C0.951201 3.92375 1.3662 2.7375 2.3012 1.80125C3.23745 0.86625 4.4237 0.45125 5.8887 0.25375C7.3137 0.0625001 9.13245 0.0625 11.43 0.0625ZM2.46995 7.5625H25.53C25.5143 6.91887 25.4667 6.27642 25.3875 5.6375C25.2187 4.38125 24.9012 3.65625 24.3725 3.1275C23.8437 2.59875 23.1187 2.28125 21.8612 2.1125C20.5774 1.94 18.8837 1.9375 16.5 1.9375H11.5C9.1162 1.9375 7.4237 1.94 6.13745 2.1125C4.8812 2.28125 4.1562 2.59875 3.62745 3.1275C3.0987 3.65625 2.7812 4.38125 2.61245 5.63875C2.53745 6.195 2.49495 6.82875 2.46995 7.5625ZM22.0875 12.8375C22.2632 12.6619 22.5015 12.5633 22.75 12.5633C22.9984 12.5633 23.2367 12.6619 23.4125 12.8375L25.9125 15.3375C26.0046 15.4233 26.0784 15.5268 26.1297 15.6418C26.1809 15.7568 26.2085 15.881 26.2107 16.0068C26.2129 16.1327 26.1898 16.2578 26.1426 16.3745C26.0955 16.4912 26.0253 16.5973 25.9362 16.6863C25.8472 16.7753 25.7412 16.8455 25.6244 16.8927C25.5077 16.9398 25.3827 16.963 25.2568 16.9607C25.1309 16.9585 25.0068 16.931 24.8918 16.8797C24.7768 16.8285 24.6733 16.7546 24.5875 16.6625L23.6875 15.7625V21C23.6875 21.2486 23.5887 21.4871 23.4129 21.6629C23.237 21.8387 22.9986 21.9375 22.75 21.9375C22.5013 21.9375 22.2629 21.8387 22.087 21.6629C21.9112 21.4871 21.8125 21.2486 21.8125 21V15.7625L20.9125 16.6625C20.8266 16.7546 20.7231 16.8285 20.6081 16.8797C20.4931 16.931 20.369 16.9585 20.2431 16.9607C20.1172 16.963 19.9922 16.9398 19.8755 16.8927C19.7587 16.8455 19.6527 16.7753 19.5637 16.6863C19.4746 16.5973 19.4044 16.4912 19.3573 16.3745C19.3101 16.2578 19.287 16.1327 19.2892 16.0068C19.2914 15.881 19.319 15.7568 19.3702 15.6418C19.4215 15.5268 19.4953 15.4233 19.5875 15.3375L22.0875 12.8375ZM5.56245 16C5.56245 15.7514 5.66122 15.5129 5.83704 15.3371C6.01285 15.1613 6.25131 15.0625 6.49995 15.0625H11.5C11.7486 15.0625 11.987 15.1613 12.1629 15.3371C12.3387 15.5129 12.4375 15.7514 12.4375 16C12.4375 16.2486 12.3387 16.4871 12.1629 16.6629C11.987 16.8387 11.7486 16.9375 11.5 16.9375H6.49995C6.25131 16.9375 6.01285 16.8387 5.83704 16.6629C5.66122 16.4871 5.56245 16.2486 5.56245 16ZM13.6875 16C13.6875 15.7514 13.7862 15.5129 13.962 15.3371C14.1379 15.1613 14.3763 15.0625 14.625 15.0625H15.25C15.4986 15.0625 15.737 15.1613 15.9129 15.3371C16.0887 15.5129 16.1875 15.7514 16.1875 16C16.1875 16.2486 16.0887 16.4871 15.9129 16.6629C15.737 16.8387 15.4986 16.9375 15.25 16.9375H14.625C14.3763 16.9375 14.1379 16.8387 13.962 16.6629C13.7862 16.4871 13.6875 16.2486 13.6875 16Z" fill="#E0E0E0"/>
</svg>
